<?xml version="1.0" standalone="no"?><!DOCTYPE svg PUBLIC "-//W3C//DTD SVG 1.1//EN" "http://www.w3.org/Graphics/SVG/1.1/DTD/svg11.dtd"><svg t="1591769079731" class="icon" viewBox="0 0 1024 1024" version="1.1" xmlns="http://www.w3.org/2000/svg" p-id="6097" xmlns:xlink="http://www.w3.org/1999/xlink" width="64" height="64"><defs><style type="text/css"></style></defs><path d="M324.736 964.053333l-71.850667-192.938666-192.938666-71.850667L145.493333 512 59.946667 324.736l192.938666-71.850667L324.693333 59.946667 512 145.493333l187.264-85.589333 71.850667 192.938667 192.938666 71.850666L878.506667 512l85.589333 187.264-192.938667 71.850667-71.850666 192.938666L512 878.506667l-187.264 85.589333zM512 784.64l139.306667 63.658667 53.461333-143.530667 143.530667-53.461333L784.64 512l63.658667-139.306667-143.530667-53.461333-53.461333-143.530667L512 239.36 372.693333 175.701333 319.232 319.232 175.701333 372.693333 239.36 512l-63.658667 139.306667 143.530667 53.461333 53.461333 143.530667L512 784.64zM512 725.333333a213.333333 213.333333 0 1 1 0-426.666666 213.333333 213.333333 0 0 1 0 426.666666z m0-85.333333a128 128 0 1 0 0-256 128 128 0 0 0 0 256z" p-id="6098" fill="#ffffff"></path></svg>