<?xml version="1.0" standalone="no"?><!DOCTYPE svg PUBLIC "-//W3C//DTD SVG 1.1//EN" "http://www.w3.org/Graphics/SVG/1.1/DTD/svg11.dtd"><svg t="1591776241455" class="icon" viewBox="0 0 1024 1024" version="1.1" xmlns="http://www.w3.org/2000/svg" p-id="3529" xmlns:xlink="http://www.w3.org/1999/xlink" width="64" height="64"><defs><style type="text/css"></style></defs><path d="M903.808 585.856l-295.893333 295.893333a22.4 22.4 0 0 1-1.408 2.090667 40.704 40.704 0 0 1-45.141334 8.533333 42.666667 42.666667 0 0 1-15.872-9.856 41.088 41.088 0 0 1-3.413333-5.12l-167.253333-167.296a40.96 40.96 0 0 1 57.898666-57.898666l140.8 140.8 268.8-268.8a43.605333 43.605333 0 0 1 61.482667 61.653333zM490.666667 512a213.333333 213.333333 0 1 1 213.333333-213.333333 213.333333 213.333333 0 0 1-213.333333 213.333333z m0-341.333333a128 128 0 1 0 128 128 128 128 0 0 0-128-128z m195.541333 395.264l-63.445333 63.445333A296.661333 296.661333 0 0 0 192 896a42.666667 42.666667 0 0 1-85.333333 0 383.445333 383.445333 0 0 1 579.541333-330.069333zM874.666667 896a42.666667 42.666667 0 0 1-85.333334 0 297.216 297.216 0 0 0-9.301333-70.656l68.266667-68.266667A382.549333 382.549333 0 0 1 874.666667 896z" p-id="3530" fill="#ffffff"></path></svg>