<?xml version="1.0" standalone="no"?><!DOCTYPE svg PUBLIC "-//W3C//DTD SVG 1.1//EN" "http://www.w3.org/Graphics/SVG/1.1/DTD/svg11.dtd"><svg t="1591842295565" class="icon" viewBox="0 0 1024 1024" version="1.1" xmlns="http://www.w3.org/2000/svg" p-id="11045" xmlns:xlink="http://www.w3.org/1999/xlink" width="64" height="64"><defs><style type="text/css"></style></defs><path d="M872.00256 872.00256H152.00256c-49.70496 0-89.99936-40.28928-89.99936-89.99936V242.00192c0-49.70496 40.2944-89.99936 89.99936-89.99936h720c49.71008 0 89.99936 40.2944 89.99936 89.99936v539.99616c0 49.69984-40.2944 90.00448-89.99936 90.00448z m9.15968-609.52064c0-24.85248-4.79232-29.63968-29.63968-29.63968H172.48256c-24.85248 0-29.63968 4.7872-29.63968 29.63968v499.03616c0 24.85248 4.7872 29.63968 29.63968 29.63968h679.04c24.85248 0 29.63968-4.79232 29.63968-29.63968V262.48192z" fill="#ffffff" p-id="11046"></path><path d="M61.99808 386.16064h900.00384v75.71968H61.99808V386.16064zM817.152 558.99136l-80.9984 128.95232a28.1088 28.1088 0 0 1-36.84352 9.1392 23.74656 23.74656 0 0 1-9.84576-33.88928l80.72192-128.95232a28.12416 28.12416 0 0 1 36.84352-9.1392 23.7568 23.7568 0 0 1 10.12224 33.88928z m-215.72608 129.09056a28.1088 28.1088 0 0 1-36.84352 9.1392 23.75168 23.75168 0 0 1-9.84064-33.88928l80.9984-128.95232a28.12416 28.12416 0 0 1 35.99872-9.28256 23.74656 23.74656 0 0 1 9.84064 33.88416l-80.1536 129.1008z m-134.99392 0a28.11904 28.11904 0 0 1-36.84864 9.1392 23.7568 23.7568 0 0 1-9.84576-33.88928l81.00352-128.95232a28.1088 28.1088 0 0 1 36.8384-9.1392 23.7568 23.7568 0 0 1 9.84576 33.88928L466.432 688.08192z" fill="#ffffff" p-id="11047"></path></svg>