<?xml version="1.0" encoding="utf-8"?>
<!-- Generator: Adobe Illustrator 16.0.0, SVG Export Plug-In . SVG Version: 6.00 Build 0)  -->
<!DOCTYPE svg PUBLIC "-//W3C//DTD SVG 1.1//EN" "http://www.w3.org/Graphics/SVG/1.1/DTD/svg11.dtd">
<svg version="1.1" id="图层_1" xmlns="http://www.w3.org/2000/svg" xmlns:xlink="http://www.w3.org/1999/xlink" x="0px" y="0px"
	 width="1000px" height="1000px" viewBox="0 0 1000 1000" enable-background="new 0 0 1000 1000" xml:space="preserve">
<g>
	<g>
		<defs>
			<rect id="SVGID_1_" x="134" y="147" width="730.8" height="707.76"/>
		</defs>
		<clipPath id="SVGID_2_">
			<use xlink:href="#SVGID_1_"  overflow="visible"/>
		</clipPath>
		<path clip-path="url(#SVGID_2_)" fill="#FFFFFF" d="M499.465,853.802c-188.52,0-341.332-152.817-341.332-341.336
			c0-188.52,152.812-341.332,341.332-341.332c188.52,0,341.336,152.812,341.336,341.332
			C840.801,700.984,687.984,853.802,499.465,853.802L499.465,853.802z M499.465,785.532c150.813,0,273.066-122.255,273.066-273.066
			c0-150.809-122.254-273.067-273.066-273.067c-150.809,0-273.067,122.258-273.067,273.067
			C226.398,663.277,348.656,785.532,499.465,785.532L499.465,785.532z M465.332,532.47l146.535-146.535l48.266,48.265
			L465.332,628.997L338.801,502.466l48.265-48.266L465.332,532.47z M465.332,532.47"/>
	</g>
</g>
</svg>
