<?xml version="1.0" standalone="no"?><!DOCTYPE svg PUBLIC "-//W3C//DTD SVG 1.1//EN" "http://www.w3.org/Graphics/SVG/1.1/DTD/svg11.dtd"><svg t="1591775682069" class="icon" viewBox="0 0 1024 1024" version="1.1" xmlns="http://www.w3.org/2000/svg" p-id="3101" xmlns:xlink="http://www.w3.org/1999/xlink" width="64" height="64"><defs><style type="text/css"></style></defs><path d="M939.76 221.2c0-74.44-60.52-134.96-134.96-134.96-55.26 0-103 33.38-123.88 81.12-50.58-24.72-107.4-38.5-167.35-38.5s-116.78 13.78-167.35 38.5c-20.88-47.73-68.62-81.12-123.88-81.12-74.44 0-134.96 60.52-134.96 134.96 0 55.26 33.38 103 81.12 123.88-24.72 50.57-38.5 107.4-38.5 167.35 0 122.96 58.2 232.49 148.42 302.73L226 867.58c-16.64 16.64-16.64 43.63 0 60.27 8.32 8.32 19.23 12.48 30.14 12.48s21.81-4.16 30.14-12.48l60.27-60.27c2.24-2.24 4.12-4.69 5.76-7.25C401.37 883.16 455.98 896 513.57 896c57.59 0 112.21-12.83 161.27-35.66 1.64 2.56 3.52 5.01 5.76 7.25l60.27 60.27c8.32 8.32 19.23 12.48 30.14 12.48s21.81-4.16 30.14-12.48c16.64-16.64 16.64-43.63 0-60.27l-52.43-52.43c90.23-70.24 148.42-179.77 148.42-302.73 0-59.95-13.78-116.78-38.5-167.35 47.74-20.89 81.12-68.62 81.12-123.88z m-767.14 0c0-27.42 22.3-49.72 49.72-49.72 25.43 0 46.45 19.18 49.3 43.75a363.196 363.196 0 0 0-55.26 55.26c-24.58-2.84-43.76-23.86-43.76-49.29z m340.95 589.56c-164.51 0-298.33-133.82-298.33-298.33 0-60.09 17.9-116.07 48.58-162.8a298.407 298.407 0 0 1 86.94-86.94C397.5 232 453.47 214.1 513.56 214.1c60.09 0 116.06 17.9 162.8 48.59a298.407 298.407 0 0 1 86.94 86.94c30.68 46.74 48.58 102.71 48.58 162.8 0.03 164.5-133.8 298.33-298.31 298.33z m241.94-595.53c2.84-24.58 23.87-43.75 49.3-43.75 27.42 0 49.72 22.3 49.72 49.72 0 25.43-19.18 46.45-43.76 49.3a363.261 363.261 0 0 0-55.26-55.27z" fill="#ffffff" p-id="3102"></path><path d="M513.57 270.92c-23.54 0-42.62 19.08-42.62 42.62v213.09h-99.44c-23.54 0-42.62 19.08-42.62 42.62s19.08 42.62 42.62 42.62h142.06c23.54 0 42.62-19.08 42.62-42.62V313.54c0-23.54-19.08-42.62-42.62-42.62z" fill="#ffffff" p-id="3103"></path></svg>