<?xml version="1.0" standalone="no"?><!DOCTYPE svg PUBLIC "-//W3C//DTD SVG 1.1//EN" "http://www.w3.org/Graphics/SVG/1.1/DTD/svg11.dtd"><svg t="1591775427392" class="icon" viewBox="0 0 1024 1024" version="1.1" xmlns="http://www.w3.org/2000/svg" p-id="2966" xmlns:xlink="http://www.w3.org/1999/xlink" width="64" height="64"><defs><style type="text/css"></style></defs><path d="M810.666667 938.666667H213.333333a85.333333 85.333333 0 0 1-85.333333-85.333334V170.666667a85.333333 85.333333 0 0 1 85.333333-85.333334h597.333334a85.333333 85.333333 0 0 1 85.333333 85.333334v682.666666a85.333333 85.333333 0 0 1-85.333333 85.333334z m0-725.333334a42.666667 42.666667 0 0 0-42.666667-42.666666H256a42.666667 42.666667 0 0 0-42.666667 42.666666v597.333334a42.666667 42.666667 0 0 0 42.666667 42.666666h512a42.666667 42.666667 0 0 0 42.666667-42.666666V213.333333z m-128 554.666667H341.333333a42.666667 42.666667 0 0 1 0-85.333333h341.333334a42.666667 42.666667 0 0 1 0 85.333333z m0-128H341.333333a42.666667 42.666667 0 0 1 0-85.333333h341.333334a42.666667 42.666667 0 0 1 0 85.333333z m-201.130667-170.666667H329.130667A30.464 30.464 0 0 1 298.666667 438.869333V286.464A30.464 30.464 0 0 1 329.130667 256h152.405333a30.464 30.464 0 0 1 30.464 30.464v152.405333a30.464 30.464 0 0 1-30.464 30.464zM426.666667 341.333333H384v42.666667h42.666667V341.333333z" p-id="2967" fill="#ffffff"></path></svg>