<?xml version="1.0" standalone="no"?><!DOCTYPE svg PUBLIC "-//W3C//DTD SVG 1.1//EN" "http://www.w3.org/Graphics/SVG/1.1/DTD/svg11.dtd"><svg t="1591775467395" class="icon" viewBox="0 0 1024 1024" version="1.1" xmlns="http://www.w3.org/2000/svg" p-id="2586" xmlns:xlink="http://www.w3.org/1999/xlink" width="64" height="64"><defs><style type="text/css"></style></defs><path d="M907.44 86.97H118.35c-16.8 0-29.93 14.5-28.25 31.22l79.5 795.05c1.45 14.52 13.67 25.57 28.25 25.57h630.08c14.59 0 26.8-11.05 28.25-25.57l79.5-795.05c1.69-16.71-11.44-31.22-28.24-31.22z m-130.9 766.66H249.25L181.1 172.16h663.59l-68.15 681.47z" fill="#ffffff" p-id="2587"></path><path d="M466.86 584.89c16.63 16.63 43.6 16.63 60.23 0l140.55-140.55c16.63-16.63 16.63-43.6 0-60.23-16.63-16.63-43.6-16.63-60.23 0L496.97 494.54l-50.2-50.2c-16.63-16.63-43.6-16.63-60.23 0s-16.63 43.6 0 60.23l80.32 80.32z" fill="#ffffff" p-id="2588"></path></svg>