<?xml version="1.0" standalone="no"?><!DOCTYPE svg PUBLIC "-//W3C//DTD SVG 1.1//EN" "http://www.w3.org/Graphics/SVG/1.1/DTD/svg11.dtd"><svg t="1591775051106" class="icon" viewBox="0 0 1024 1024" version="1.1" xmlns="http://www.w3.org/2000/svg" p-id="8961" xmlns:xlink="http://www.w3.org/1999/xlink" width="64" height="64"><defs><style type="text/css"></style></defs><path d="M512 657.664l-97.834667 97.834667-60.330666-60.330667L451.669333 597.333333l-97.834666-97.834666 60.330666-60.330667L512 537.002667l97.834667-97.834667 60.330666 60.330667L572.330667 597.333333l97.834666 97.834667-60.330666 60.330667L512 657.664zM896 384H128v426.666667h768V384z m0-85.333333V213.333333H128v85.333334h768zM128 896a85.333333 85.333333 0 0 1-85.333333-85.333333V213.333333a85.333333 85.333333 0 0 1 85.333333-85.333333h768a85.333333 85.333333 0 0 1 85.333333 85.333333v597.333334a85.333333 85.333333 0 0 1-85.333333 85.333333H128z" p-id="8962" fill="#ffffff"></path></svg>