<?xml version="1.0" standalone="no"?><!DOCTYPE svg PUBLIC "-//W3C//DTD SVG 1.1//EN" "http://www.w3.org/Graphics/SVG/1.1/DTD/svg11.dtd"><svg t="1591773547194" class="icon" viewBox="0 0 1024 1024" version="1.1" xmlns="http://www.w3.org/2000/svg" p-id="8523" xmlns:xlink="http://www.w3.org/1999/xlink" width="64" height="64"><defs><style type="text/css"></style></defs><path d="M631.552 274.986667L371.029333 535.466667c-17.28 15.274667-27.989333 36.693333-29.696 56.234666v91.093334l88.064 0.085333c22.784-1.621333 43.989333-12.245333 61.013334-31.701333L749.141333 392.533333l-117.546666-117.546666z m60.373333-60.330667l117.504 117.546667 38.144-38.144a19.712 19.712 0 0 0 0-27.861334L757.76 176.426667a19.456 19.456 0 0 0-27.605333 0l-38.272 38.229333zM938.666667 554.666667v298.666666a85.333333 85.333333 0 0 1-85.333334 85.333334H170.666667a85.333333 85.333333 0 0 1-85.333334-85.333334V170.666667a85.333333 85.333333 0 0 1 85.333334-85.333334h298.666666v85.333334H170.666667v682.666666h682.666666v-298.666666h85.333334zM743.978667 85.333333c27.946667 0 54.741333 11.136 74.282666 30.848l89.642667 89.642667a105.045333 105.045333 0 0 1 0 148.565333l-355.029333 354.901334c-29.824 34.346667-72.106667 55.466667-120.448 58.794666H256v-42.666666l0.128-137.173334c3.626667-44.970667 24.576-86.826667 56.448-114.944l357.12-357.034666A104.789333 104.789333 0 0 1 743.936 85.333333z" p-id="8524" fill="#ffffff"></path></svg>