<?xml version="1.0" standalone="no"?><!DOCTYPE svg PUBLIC "-//W3C//DTD SVG 1.1//EN" "http://www.w3.org/Graphics/SVG/1.1/DTD/svg11.dtd"><svg t="1591774865256" class="icon" viewBox="0 0 1024 1024" version="1.1" xmlns="http://www.w3.org/2000/svg" p-id="2235" xmlns:xlink="http://www.w3.org/1999/xlink" width="64" height="64"><defs><style type="text/css"></style></defs><path d="M422.43 514.63h212.05c23.42 0 42.41-18.99 42.41-42.41 0-23.42-18.99-42.41-42.41-42.41H422.43c-23.42 0-42.41 18.99-42.41 42.41 0 23.42 18.98 42.41 42.41 42.41z" fill="#ffffff" p-id="2236"></path><path d="M295.2 472.22m-42.41 0a42.41 42.41 0 1 0 84.82 0 42.41 42.41 0 1 0-84.82 0Z" fill="#ffffff" p-id="2237"></path><path d="M634.47 557.04H422.43c-23.42 0-42.41 18.99-42.41 42.41 0 23.42 18.99 42.41 42.41 42.41h212.05c23.42 0 42.41-18.99 42.41-42.41-0.01-23.43-18.99-42.41-42.42-42.41z" fill="#ffffff" p-id="2238"></path><path d="M295.2 599.45m-42.41 0a42.41 42.41 0 1 0 84.82 0 42.41 42.41 0 1 0-84.82 0Z" fill="#ffffff" p-id="2239"></path><path d="M422.43 387.4h212.05c23.42 0 42.41-18.99 42.41-42.41 0-23.42-18.99-42.41-42.41-42.41H422.43c-23.42 0-42.41 18.99-42.41 42.41 0 23.42 18.98 42.41 42.41 42.41z" fill="#ffffff" p-id="2240"></path><path d="M295.2 344.99m-42.41 0a42.41 42.41 0 1 0 84.82 0 42.41 42.41 0 1 0-84.82 0Z" fill="#ffffff" p-id="2241"></path><path d="M926.26 866.14L765.11 704.99c52.16-65.31 83.55-148.01 83.55-237.92 0-210.78-170.91-381.69-381.69-381.69S85.28 256.29 85.28 467.07s170.91 381.69 381.69 381.69c89.91 0 172.61-31.38 237.92-83.55l161.16 161.16c8.48 8.06 19.51 12.3 30.11 12.3 11.03 0 21.63-4.24 30.11-12.3 16.53-16.54 16.53-43.68-0.01-60.23z m-459.29-102.2c-163.7 0-296.87-133.17-296.87-296.87S303.27 170.2 466.97 170.2s296.87 133.17 296.87 296.87c0 66.58-21.63 127.65-59.37 177.27-16.54 22.9-37.32 43.68-60.22 60.22-49.63 37.75-110.7 59.38-177.28 59.38z" fill="#ffffff" p-id="2242"></path></svg>