<?xml version="1.0" standalone="no"?><!DOCTYPE svg PUBLIC "-//W3C//DTD SVG 1.1//EN" "http://www.w3.org/Graphics/SVG/1.1/DTD/svg11.dtd"><svg t="1591769565944" class="icon" viewBox="0 0 1024 1024" version="1.1" xmlns="http://www.w3.org/2000/svg" p-id="6619" xmlns:xlink="http://www.w3.org/1999/xlink" width="64" height="64"><defs><style type="text/css"></style></defs><path d="M180.138667 843.861333c-39.424-39.424-50.773333-99.584-38.4-178.517333C77.226667 618.282667 42.666667 567.765333 42.666667 512s34.56-106.282667 99.072-153.344c-12.373333-78.933333-1.024-139.093333 38.4-178.517333 39.424-39.424 99.584-50.773333 178.517333-38.4C405.717333 77.226667 456.234667 42.666667 512 42.666667s106.282667 34.56 153.344 99.072c78.933333-12.373333 139.093333-1.024 178.517333 38.4 39.424 39.424 50.773333 99.584 38.4 178.517333C946.773333 405.717333 981.333333 456.234667 981.333333 512s-34.56 106.282667-99.072 153.344c12.373333 78.933333 1.024 139.093333-38.4 178.517333-39.424 39.424-99.584 50.773333-178.517333 38.4C618.282667 946.773333 567.765333 981.333333 512 981.333333s-106.282667-34.56-153.344-99.072c-78.933333 12.373333-139.093333 1.024-178.517333-38.4z m189.013333-50.346666a42.666667 42.666667 0 0 1 44.8 18.517333C451.498667 870.101333 485.034667 896 512 896c26.965333 0 60.501333-25.898667 98.048-83.968a42.666667 42.666667 0 0 1 44.8-18.517333c67.584 14.506667 109.610667 9.088 128.682667-9.984 19.072-19.072 24.448-61.098667 9.984-128.725334a42.666667 42.666667 0 0 1 18.517333-44.757333C870.101333 572.501333 896 538.965333 896 512c0-26.965333-25.898667-60.501333-83.968-98.048a42.666667 42.666667 0 0 1-18.517333-44.8c14.506667-67.584 9.088-109.610667-9.984-128.682667-19.072-19.072-61.098667-24.448-128.725334-9.984a42.666667 42.666667 0 0 1-44.757333-18.517333C572.501333 153.898667 538.965333 128 512 128c-26.965333 0-60.501333 25.898667-98.048 83.968a42.666667 42.666667 0 0 1-44.8 18.517333c-67.584-14.506667-109.610667-9.088-128.682667 9.984-19.072 19.072-24.448 61.098667-9.984 128.725334a42.666667 42.666667 0 0 1-18.517333 44.757333C153.898667 451.498667 128 485.034667 128 512c0 26.965333 25.898667 60.501333 83.968 98.048a42.666667 42.666667 0 0 1 18.517333 44.8c-14.506667 67.584-9.088 109.610667 9.984 128.682667 19.072 19.072 61.098667 24.448 128.725334 9.984zM469.333333 537.002667l183.168-183.168 60.330667 60.330666L469.333333 657.664l-158.165333-158.165333 60.330667-60.330667L469.333333 537.002667z" p-id="6620" fill="#ffffff"></path></svg>