<?xml version="1.0" standalone="no"?><!DOCTYPE svg PUBLIC "-//W3C//DTD SVG 1.1//EN" "http://www.w3.org/Graphics/SVG/1.1/DTD/svg11.dtd"><svg t="1591770920195" class="icon" viewBox="0 0 1024 1024" version="1.1" xmlns="http://www.w3.org/2000/svg" p-id="5277" xmlns:xlink="http://www.w3.org/1999/xlink" width="64" height="64"><defs><style type="text/css"></style></defs><path d="M773.376 235.136c0-23.168-19.072-42.24-42.24-42.24h-453.12c-23.168 0-42.24 19.072-42.24 42.24s19.072 42.24 42.24 42.24h453.12c23.168 0 42.24-19.072 42.24-42.24zM773.376 427.136c0-23.296-19.072-42.24-42.24-42.24h-453.12c-23.168 0-42.24 18.944-42.24 42.24 0 23.168 19.072 42.24 42.24 42.24h453.12c23.168 0 42.24-18.944 42.24-42.24zM278.016 576.896c-23.168 0-42.24 18.944-42.24 42.24s19.072 42.24 42.24 42.24h143.36c23.296 0 42.24-19.072 42.24-42.24s-18.944-42.24-42.24-42.24h-143.36z" p-id="5278" fill="#ffffff"></path><path d="M471.168 918.784H162.816v-811.52h683.52v376.192c0 23.296 18.944 42.24 42.24 42.24s42.24-18.944 42.24-42.24V103.424c0-44.544-36.096-80.64-80.64-80.64h-691.2c-44.544 0-80.64 36.096-80.64 80.64v819.2c0 44.544 36.096 80.64 80.64 80.64h312.192c23.296 0 42.24-18.944 42.24-42.24s-18.944-42.24-42.24-42.24z" p-id="5279" fill="#ffffff"></path><path d="M928.256 901.248l-32.64-32.64c22.016-33.664 34.944-73.856 34.944-117.12 0-118.144-96.128-214.272-214.272-214.272s-214.272 96.128-214.272 214.272c0 118.144 96.128 214.272 214.272 214.272 44.416 0 85.76-13.568 120.064-36.864l32.128 32.128c16.512 16.512 43.264 16.512 59.776 0 16.512-16.512 16.512-43.264 0-59.776z m-212.096-19.968c-71.552 0-129.792-58.24-129.792-129.792 0-71.552 58.24-129.792 129.792-129.792s129.792 58.24 129.792 129.792c0 71.552-58.24 129.792-129.792 129.792z" p-id="5280" fill="#ffffff"></path></svg>