<?xml version="1.0" standalone="no"?><!DOCTYPE svg PUBLIC "-//W3C//DTD SVG 1.1//EN" "http://www.w3.org/Graphics/SVG/1.1/DTD/svg11.dtd"><svg t="1591770466763" class="icon" viewBox="0 0 1024 1024" version="1.1" xmlns="http://www.w3.org/2000/svg" p-id="1367" xmlns:xlink="http://www.w3.org/1999/xlink" width="64" height="64"><defs><style type="text/css"></style></defs><path d="M768 896H256a128 128 0 0 1-128-128V256a128 128 0 0 1 128-128h256a42.666667 42.666667 0 0 1 0 85.333333H256a42.666667 42.666667 0 0 0-42.666667 42.666667v512a42.666667 42.666667 0 0 0 42.666667 42.666667h512a42.666667 42.666667 0 0 0 42.666667-42.666667v-256a42.666667 42.666667 0 0 1 85.333333 0v256a128 128 0 0 1-128 128z m-408.405333-232.917333a64 64 0 0 1 0-90.325334l45.141333-45.184 90.325333 90.325334-45.141333 45.184a64 64 0 0 1-90.325333 0z m165.589333-75.264l-90.325333-90.325334 351.232-351.232a64 64 0 1 1 90.325333 90.325334z" p-id="1368" fill="#ffffff"></path></svg>