<?xml version="1.0" standalone="no"?><!DOCTYPE svg PUBLIC "-//W3C//DTD SVG 1.1//EN" "http://www.w3.org/Graphics/SVG/1.1/DTD/svg11.dtd"><svg t="1591770777992" class="icon" viewBox="0 0 1024 1024" version="1.1" xmlns="http://www.w3.org/2000/svg" p-id="6271" xmlns:xlink="http://www.w3.org/1999/xlink" width="64" height="64"><defs><style type="text/css"></style></defs><path d="M640 145.664V298.666667h153.002667L640 145.664zM810.666667 384h-170.666667a85.333333 85.333333 0 0 1-85.333333-85.333333V128H213.333333v768h597.333334V384zM213.333333 42.666667h444.330667L896 281.002667V896a85.333333 85.333333 0 0 1-85.333333 85.333333H213.333333a85.333333 85.333333 0 0 1-85.333333-85.333333V128a85.333333 85.333333 0 0 1 85.333333-85.333333z m256 622.336l183.168-183.168 60.330667 60.330666L469.333333 785.664l-158.165333-158.165333 60.330667-60.330667L469.333333 665.002667z" p-id="6272" fill="#ffffff"></path></svg>