<?xml version="1.0" standalone="no"?><!DOCTYPE svg PUBLIC "-//W3C//DTD SVG 1.1//EN" "http://www.w3.org/Graphics/SVG/1.1/DTD/svg11.dtd"><svg t="1591769226381" class="icon" viewBox="0 0 1024 1024" version="1.1" xmlns="http://www.w3.org/2000/svg" p-id="6445" xmlns:xlink="http://www.w3.org/1999/xlink" width="64" height="64"><defs><style type="text/css"></style></defs><path d="M689.578667 278.272c-38.997333-68.992-105.514667-107.093333-177.578667-107.093333-113.792 0-213.333333 94.122667-213.333333 255.317333 0 132.992-30.122667 216.618667-87.125334 278.613333-8.96 9.770667-28.245333 27.648-40.874666 39.253334v23.893333h682.666666v-23.936c-12.714667-11.690667-32-29.610667-40.96-39.424a293.034667 293.034667 0 0 1-38.656-52.906667l63.445334-63.488c10.026667 22.954667 22.784 42.026667 38.144 58.794667 10.410667 11.349333 46.976 44.245333 51.072 48.384l12.288 12.458667v145.450666h-261.376a168.106667 168.106667 0 0 1-76.202667 102.741334 171.093333 171.093333 0 0 1-178.176 0c-44.458667-27.136-69.034667-57.429333-77.824-102.741334H85.333333v-145.450666l12.288-12.458667c4.437333-4.437333 40.789333-37.034667 51.114667-48.298667C190.677333 601.770667 213.333333 538.88 213.333333 426.496c0-173.610667 95.36-293.504 219.093334-329.386667a85.333333 85.333333 0 0 1 159.146666 0.085334c63.36 18.432 119.296 59.008 158.805334 117.461333l-60.8 63.573333zM434.346667 853.589333c5.973333 11.221333 16.298667 19.669333 33.066666 29.909334 27.392 16.725333 61.866667 16.725333 89.258667 0 12.672-7.722667 22.613333-17.962667 29.44-29.909334H434.346667zM640 494.336l183.168-183.168 60.330667 60.330667L640 614.997333l-158.165333-158.165333 60.330666-60.330667L640 494.336z" p-id="6446" fill="#ffffff"></path></svg>