<?xml version="1.0" standalone="no"?><!DOCTYPE svg PUBLIC "-//W3C//DTD SVG 1.1//EN" "http://www.w3.org/Graphics/SVG/1.1/DTD/svg11.dtd"><svg t="1591771803019" class="icon" viewBox="0 0 1024 1024" version="1.1" xmlns="http://www.w3.org/2000/svg" p-id="2258" xmlns:xlink="http://www.w3.org/1999/xlink" width="64" height="64"><defs><style type="text/css"></style></defs><path d="M925.226667 925.226667a43.989333 43.989333 0 0 1-62.677334 0l-125.397333-125.013334a44.373333 44.373333 0 1 1 62.677333-62.72l125.397334 125.013334a44.330667 44.330667 0 0 1 0 62.72z m-477.866667-115.2a362.666667 362.666667 0 1 1 362.666667-362.666667 362.666667 362.666667 0 0 1-362.666667 362.666667z m0-640a277.333333 277.333333 0 1 0 277.333333 277.333333 277.333333 277.333333 0 0 0-277.333333-277.333333z" p-id="2259" fill="#ffffff"></path></svg>