<?xml version="1.0" standalone="no"?><!DOCTYPE svg PUBLIC "-//W3C//DTD SVG 1.1//EN" "http://www.w3.org/Graphics/SVG/1.1/DTD/svg11.dtd"><svg t="1591842384924" class="icon" viewBox="0 0 1024 1024" version="1.1" xmlns="http://www.w3.org/2000/svg" p-id="12487" xmlns:xlink="http://www.w3.org/1999/xlink" width="64" height="64"><defs><style type="text/css"></style></defs><path d="M832.648533 1024h-89.429333v-109.909333H634.197333v-89.838934h109.090134v-109.909333h89.429333v109.909333h109.090133v89.838934h-109.090133V1024zM123.562667 924.125867c0 3.6864 0.341333 7.236267 1.160533 13.448533l0.273067 2.048c0.682667 4.9152 0.955733 7.304533 1.2288 10.376533l1.774933 19.114667H35.498667v-17.544533a156.330667 156.330667 0 0 0-0.682667-12.288 184.5248 184.5248 0 0 1-0.682667-15.1552A374.101333 374.101333 0 0 1 301.602133 564.565333a370.551467 370.551467 0 0 1 417.792 157.9008l16.930134 26.760534H628.1216l-5.256533-6.417067A279.620267 279.620267 0 0 0 406.186667 639.3856c-155.989333 0-282.555733 127.453867-282.555734 284.672z m282.624-394.6496c-145.271467 0-262.9632-118.5792-262.9632-264.738134S260.9152 0 406.1184 0C551.389867 0 669.013333 118.5792 669.013333 264.738133S551.389867 529.476267 406.186667 529.476267z m0-457.045334a191.624533 191.624533 0 0 0-190.941867 192.3072 191.624533 191.624533 0 0 0 190.8736 192.3072 191.624533 191.624533 0 0 0 190.941867-192.3072c0-50.9952-20.138667-99.9424-55.978667-135.9872A190.190933 190.190933 0 0 0 406.186667 72.362667z" p-id="12488" fill="#ffffff"></path></svg>