<?xml version="1.0" standalone="no"?><!DOCTYPE svg PUBLIC "-//W3C//DTD SVG 1.1//EN" "http://www.w3.org/Graphics/SVG/1.1/DTD/svg11.dtd"><svg t="1591776654813" class="icon" viewBox="0 0 1024 1024" version="1.1" xmlns="http://www.w3.org/2000/svg" p-id="44137" xmlns:xlink="http://www.w3.org/1999/xlink" width="64" height="64"><defs><style type="text/css"></style></defs><path d="M58.7264 117.504A58.8032 58.8032 0 0 1 0 58.752 58.8032 58.8032 0 0 1 58.7264 0l496.9472 0.8704A58.8032 58.8032 0 0 1 614.4 59.5968a58.8032 58.8032 0 0 1-58.7264 58.7776L58.7264 117.504zM58.752 1024A58.8288 58.8288 0 0 1 0 965.248a58.8288 58.8288 0 0 1 58.752-58.752h217.9584a58.8288 58.8288 0 0 1 58.752 58.752A58.8288 58.8288 0 0 1 276.7104 1024H58.752zM58.752 419.6608A58.8032 58.8032 0 0 1 0 360.9088a58.8288 58.8288 0 0 1 58.752-58.752h112.9216a58.8288 58.8288 0 0 1 58.752 58.752 58.8032 58.8032 0 0 1-58.752 58.752h-112.896zM58.752 721.8432A58.8288 58.8288 0 0 1 0 663.0912a58.8288 58.8288 0 0 1 58.752-58.7776h87.3728a58.8288 58.8288 0 0 1 58.752 58.7776 58.8288 58.8288 0 0 1-58.752 58.752H58.752zM625.2032 330.0608c-139.264 0-252.5184 113.3568-252.5184 252.672 0 139.3152 113.28 252.672 252.5184 252.672 139.2128 0 252.4928-113.3568 252.4928-252.672 0-139.3152-113.28-252.672-252.4928-252.672m346.6752 651.264a51.0208 51.0208 0 0 1-36.864-15.5392l-97.4592-97.536a354.304 354.304 0 0 1-212.352 70.7584c-196.6336 0-356.608-160-356.608-356.7104 0-196.5056 159.9744-356.352 356.608-356.352 196.5824 0 356.5312 160.0256 356.5312 356.7872 0 76.0832-25.088 151.2192-70.784 212.48l83.712 83.712v-0.768l14.3872 14.7712a52.0192 52.0192 0 0 1-37.1712 88.3968" p-id="44138" fill="#ffffff"></path></svg>