<?xml version="1.0" standalone="no"?><!DOCTYPE svg PUBLIC "-//W3C//DTD SVG 1.1//EN" "http://www.w3.org/Graphics/SVG/1.1/DTD/svg11.dtd"><svg t="1591775918115" class="icon" viewBox="0 0 1024 1024" version="1.1" xmlns="http://www.w3.org/2000/svg" p-id="31550" xmlns:xlink="http://www.w3.org/1999/xlink" width="64" height="64"><defs><style type="text/css"></style></defs><path d="M450.25 873.61h-196a10 10 0 0 1-10-10v-702a10 10 0 0 1 10-10h519.67a10 10 0 0 1 10 10l-0.24 355.83c0 23.75 17.94 43 40.12 43 22.17 0 40.16-19.22 40.17-43l0.28-408.87c0-23.76-18-43-40.15-43h-620c-22.18 0-40.15 19.25-40.15 43v808c0 23.75 18 43 40.15 43h246.15c22.17 0 40.15-19.25 40.15-43s-17.98-42.96-40.15-42.96z" p-id="31551" fill="#ffffff"></path><path d="M713.53 346.24a43 43 0 0 0-43-43h-302a43 43 0 0 0 0 86h302a43 43 0 0 0 43-43zM371.53 488.74a43 43 0 0 0 0 86h203a43 43 0 0 0 0-86zM927.5 897.62l-51.33-51.32a180.43 180.43 0 1 0-70.5 73.7l49.71 49.71a51 51 0 0 0 72.12-72.13zM715.75 858a94.5 94.5 0 1 1 94.5-94.5 94.6 94.6 0 0 1-94.5 94.5z" p-id="31552" fill="#ffffff"></path></svg>