<?xml version="1.0" standalone="no"?><!DOCTYPE svg PUBLIC "-//W3C//DTD SVG 1.1//EN" "http://www.w3.org/Graphics/SVG/1.1/DTD/svg11.dtd"><svg t="1591771116866" class="icon" viewBox="0 0 1024 1024" version="1.1" xmlns="http://www.w3.org/2000/svg" p-id="6445" xmlns:xlink="http://www.w3.org/1999/xlink" width="64" height="64"><defs><style type="text/css"></style></defs><path d="M512 981.333333C252.8 981.333333 42.666667 771.2 42.666667 512S252.8 42.666667 512 42.666667s469.333333 210.133333 469.333333 469.333333-210.133333 469.333333-469.333333 469.333333z m0-85.333333a384 384 0 1 0 0-768 384 384 0 0 0 0 768z m-188.501333-130.602667l36.010666-209.92L206.933333 406.784l210.773334-30.592L512 185.173333l94.293333 191.018667 210.730667 30.592-152.533333 148.693333 36.010666 209.92L512 666.282667l-188.501333 99.114666zM512 569.856l75.178667 39.552-14.336-83.754667 60.8-59.264-84.053334-12.202666L512 378.026667l-37.589333 76.16-84.053334 12.202666 60.8 59.306667-14.336 83.712L512 569.856z" p-id="6446" fill="#ffffff"></path></svg>