<?xml version="1.0" standalone="no"?><!DOCTYPE svg PUBLIC "-//W3C//DTD SVG 1.1//EN" "http://www.w3.org/Graphics/SVG/1.1/DTD/svg11.dtd"><svg t="1591770654645" class="icon" viewBox="0 0 1024 1024" version="1.1" xmlns="http://www.w3.org/2000/svg" p-id="6097" xmlns:xlink="http://www.w3.org/1999/xlink" width="64" height="64"><defs><style type="text/css"></style></defs><path d="M892.970667 463.36a384.426667 384.426667 0 0 0-238.250667-307.968C699.52 241.792 725.333333 370.005333 725.333333 512c0 6.485333-0.042667 12.928-0.170666 19.370667 84.394667-18.688 147.712-45.482667 167.808-68.010667z m-0.341334 99.669333c-45.226667 23.552-104.789333 43.221333-172.458666 56.746667-9.6 98.261333-32.341333 184.96-65.450667 248.832a384.426667 384.426667 0 0 0 237.909333-305.578667z m-760.234666 7.253334a384.512 384.512 0 0 0 236.885333 298.325333c-32.682667-63.104-55.296-148.48-65.109333-245.205333-68.522667-11.946667-127.274667-29.952-171.776-53.12z m-1.578667-104.917334c12.416 15.957333 47.018667 36.309333 99.925333 52.906667 20.864 6.570667 43.690667 12.330667 68.181334 17.194667A1159.509333 1159.509333 0 0 1 298.666667 512c0-141.994667 25.856-270.208 70.613333-356.608a384.426667 384.426667 0 0 0-238.506667 309.973333z m508.586667 80.981334c0.426667-11.306667 0.597333-22.784 0.597333-34.346667 0-214.016-68.010667-384-128-384s-128 169.984-128 384c0 12.245333 0.213333 24.32 0.64 36.266667 40.021333 4.181333 82.773333 6.4 127.36 6.4 43.861333 0 86.912-3.114667 127.402667-8.32z m-6.826667 87.04c-38.997333 4.266667-79.488 6.613333-120.576 6.613333-41.813333 0-82.090667-1.792-120.362667-5.248C411.008 787.498667 464.042667 896 512 896c48.085333 0 101.290667-109.141333 120.533333-262.656zM512 42.666667c259.2 0 469.333333 210.133333 469.333333 469.333333s-210.133333 469.333333-469.333333 469.333333S42.666667 771.2 42.666667 512 252.8 42.666667 512 42.666667z" p-id="6098" fill="#ffffff"></path></svg>