<?xml version="1.0" standalone="no"?><!DOCTYPE svg PUBLIC "-//W3C//DTD SVG 1.1//EN" "http://www.w3.org/Graphics/SVG/1.1/DTD/svg11.dtd"><svg t="1591774279130" class="icon" viewBox="0 0 1024 1024" version="1.1" xmlns="http://www.w3.org/2000/svg" p-id="19994" xmlns:xlink="http://www.w3.org/1999/xlink" width="64" height="64"><defs><style type="text/css"></style></defs><path d="M692.554156 0H206.605542C137.994962 0 84.344584 54.166247 84.344584 119.681612v784.636776c0 65.515365 54.166247 119.681612 122.260958 119.681612h611.304785c65.515365 0 122.260957-54.166247 122.260958-119.681612V241.4267L692.554156 0z m160.951134 865.628212c0 45.396474-37.142569 82.539043-82.539043 82.539042h-531.345088c-39.206045 0-71.189924-31.983879-71.189925-71.189924V146.506801c0-39.206045 31.983879-71.189924 71.189925-71.189924h427.655415v135.157682c0 26.825189 21.666499 48.491688 48.491688 48.491688h135.157683l2.579345 606.661965z m-356.981361-305.394459l-3.095214-3.095214c-17.023678-14.444332-42.817128-11.349118-56.745592 3.095214-17.023678 17.023678-17.023678 45.396474 0 62.420151l85.118388 85.118388c3.095214 3.095214 3.095214 5.674559 5.67456 8.253904h3.095214c17.023678 14.444332 45.396474 14.444332 62.420151 0 3.095214-3.095214 5.674559-5.674559 5.674559-8.253904l173.33199-176.427204c17.023678-17.023678 17.023678-45.396474 0-62.420151 0-3.095214-3.095214-3.095214-5.674559-3.095214-17.023678-14.444332-42.817128-11.349118-56.745592 3.095214l-150.633753 153.728967-62.420152-62.420151zM345.890176 489.043829c0-23.729975 19.087154-42.817128 42.817129-42.817129h119.681612c25.793451 0 48.491688 20.118892 48.491688 42.817129 0 7.738035 6.190428 14.444332 14.444332 14.444332h45.396474c7.738035 0 14.444332-6.190428 14.444332-14.444332v-48.491688c0-34.047355-31.46801-62.420151-68.09471-62.420151h-221.823678c-37.142569 0-68.09471 28.372796-68.09471 62.420151v201.704786c0 34.047355 31.46801 62.420151 68.09471 62.420151h54.166247c7.738035 0 14.444332-6.190428 14.444333-14.444332v-39.721915c0-7.738035-6.190428-14.444332-14.444333-14.444332-25.793451 0-48.491688-20.118892-48.491688-42.817129L345.890176 489.043829z" p-id="19995" fill="#ffffff"></path></svg>