<?xml version="1.0" encoding="utf-8"?>
<!-- Generator: Adobe Illustrator 16.0.0, SVG Export Plug-In . SVG Version: 6.00 Build 0)  -->
<!DOCTYPE svg PUBLIC "-//W3C//DTD SVG 1.1//EN" "http://www.w3.org/Graphics/SVG/1.1/DTD/svg11.dtd">
<svg version="1.1" id="图层_1" xmlns="http://www.w3.org/2000/svg" xmlns:xlink="http://www.w3.org/1999/xlink" x="0px" y="0px"
	 width="1000px" height="1000px" viewBox="0 0 1000 1000" enable-background="new 0 0 1000 1000" xml:space="preserve">
<g>
	<path fill="#FFFFFF" d="M704.133,534.465h68.266v238.935c0,18.104-7.191,35.472-19.992,48.272
		c-12.805,12.801-30.168,19.996-48.273,19.996H226.266c-18.106,0-35.469-7.195-48.27-19.996
		C165.191,808.871,158,791.504,158,773.399V295.535c0-37.703,30.562-68.269,68.266-68.269h238.933v68.269H226.266v477.864h477.867
		V534.465z M670,500.332c-94.258,0-170.668-76.41-170.668-170.664C499.332,235.41,575.742,159,670,159
		s170.668,76.41,170.668,170.668C840.668,423.922,764.258,500.332,670,500.332L670,500.332z M670,432.067
		c56.555,0,102.398-45.848,102.398-102.399c0-56.554-45.844-102.402-102.398-102.402s-102.398,45.848-102.398,102.402
		C567.602,386.219,613.445,432.067,670,432.067L670,432.067z M670,432.067"/>
</g>
<rect x="446" y="418" transform="matrix(0.7982 0.6024 -0.6024 0.7982 439.9674 -174.3042)" fill="#FFFFFF" width="68.266" height="303"/>
</svg>
