<?xml version="1.0" standalone="no"?><!DOCTYPE svg PUBLIC "-//W3C//DTD SVG 1.1//EN" "http://www.w3.org/Graphics/SVG/1.1/DTD/svg11.dtd"><svg t="1591775947584" class="icon" viewBox="0 0 1024 1024" version="1.1" xmlns="http://www.w3.org/2000/svg" p-id="9649" xmlns:xlink="http://www.w3.org/1999/xlink" width="64" height="64"><defs><style type="text/css"></style></defs><path d="M489.898667 429.568A85.461333 85.461333 0 0 1 597.333333 512a85.333333 85.333333 0 1 1-167.765333-22.101333L268.501333 328.832l60.330667-60.330667 161.066667 161.066667zM554.666667 130.346667V298.666667h-85.333334V42.666667h42.666667c259.2 0 469.333333 210.133333 469.333333 469.333333s-210.133333 469.333333-469.333333 469.333333S42.666667 771.2 42.666667 512c0-126.421333 50.304-245.034667 138.069333-332.501333l60.245333 60.458666A382.592 382.592 0 0 0 128 512a384 384 0 1 0 426.666667-381.653333z" p-id="9650" fill="#ffffff"></path></svg>