<?xml version="1.0" standalone="no"?><!DOCTYPE svg PUBLIC "-//W3C//DTD SVG 1.1//EN" "http://www.w3.org/Graphics/SVG/1.1/DTD/svg11.dtd"><svg t="1591839741790" class="icon" viewBox="0 0 1067 1024" version="1.1" xmlns="http://www.w3.org/2000/svg" p-id="3972" xmlns:xlink="http://www.w3.org/1999/xlink" width="66.6875" height="64"><defs><style type="text/css"></style></defs><path d="M947.027899 356.808067a38.722689 38.722689 0 0 0-38.722689 38.722689v422.636639c0 70.819496-59.589916 128.387227-132.904874 128.387227H285.902521c-73.142857 0-132.904874-57.567731-132.904874-128.387227V401.167059a38.722689 38.722689 0 0 0-77.445378 0v417.000336c0 113.500504 94.354286 205.832605 210.350252 205.832605h489.497815c116.168067 0 210.350252-92.332101 210.350252-205.832605V395.530756a38.722689 38.722689 0 0 0-38.722689-38.722689z" p-id="3973" fill="#ffffff"></path><path d="M495.091092 229.797647v440.793277H420.528403l113.758656 126.623194 113.758655-126.623194h-75.509243V229.797647a118.405378 118.405378 0 0 0 81.489747-111.865546C653.983193 52.964034 600.11563 0 533.813782 0S413.601345 52.964034 413.601345 118.061176a118.405378 118.405378 0 0 0 81.489747 111.736471z m38.72269-152.352269a41.777479 41.777479 0 0 1 42.724033 40.615798 43.02521 43.02521 0 0 1-85.534118 0 41.777479 41.777479 0 0 1 42.810085-40.615798z" p-id="3974" fill="#ffffff"></path><path d="M168.830924 313.653782c40.056471 29.515294 101.195294 92.676303 130.409412 214.523697H223.042689l113.758656 126.580168 113.758655-126.580168H378.621849c-29.816471-143.618151-98.957983-224.720672-152.051093-267.487731a116.168067 116.168067 0 0 0 13.854118-54.986219c0-65.097143-53.910588-118.061176-120.212437-118.061176S0 140.606387 0 205.703529s53.910588 118.061176 120.212437 118.061177a121.245042 121.245042 0 0 0 48.618487-10.110924zM77.445378 205.703529a41.777479 41.777479 0 0 1 42.767059-40.615798 41.777479 41.777479 0 0 1 42.767059 40.615798 38.292437 38.292437 0 0 1-2.624538 13.725042l-1.505882-0.602353-4.302521 10.627227a43.283361 43.283361 0 0 1-34.420168 16.736807A41.777479 41.777479 0 0 1 77.445378 205.703529zM946.812773 87.642353c-66.301849 0-120.212437 52.964034-120.212437 118.061176a116.168067 116.168067 0 0 0 13.854118 54.986219C787.361345 303.456807 718.219832 384.559328 688.403361 528.177479h-67.63563l113.758656 126.580168 113.758655-126.580168h-80.500168c29.214118-121.847395 90.352941-185.008403 130.409412-214.523697a121.245042 121.245042 0 0 0 48.618487 10.110924c66.301849 0 120.212437-52.964034 120.212437-118.061177s-53.910588-118.061176-120.212437-118.061176z m0 158.676975a43.541513 43.541513 0 0 1-34.678319-16.822857l-4.001345-10.541177-1.548907 0.602353a39.195966 39.195966 0 0 1-2.581513-13.854118 43.02521 43.02521 0 0 1 85.534118 0 41.777479 41.777479 0 0 1-42.724034 40.615799z" p-id="3975" fill="#ffffff"></path></svg>