<?xml version="1.0" standalone="no"?><!DOCTYPE svg PUBLIC "-//W3C//DTD SVG 1.1//EN" "http://www.w3.org/Graphics/SVG/1.1/DTD/svg11.dtd"><svg t="1591776827005" class="icon" viewBox="0 0 1024 1024" version="1.1" xmlns="http://www.w3.org/2000/svg" p-id="46216" xmlns:xlink="http://www.w3.org/1999/xlink" width="64" height="64"><defs><style type="text/css"></style></defs><path d="M460.08038505 253.23042976c-115.4382928 0-222.31537251 63.24250969-301.57563575 177.85229801-12.15139925 17.67476253-12.15139925 41.14905653 0 58.82381906 78.98409508 114.6097883 186.13734295 177.85229802 301.57563575 177.852298s222.31537251-63.24250969 301.57563575-177.852298c12.15139925-17.67476253 12.15139925-41.14905653 0-58.82381906-78.98409508-114.88595647-186.13734295-177.85229802-301.57563575-177.85229801z m0 310.68918519c-70.69905013 0-138.36025047-36.45419773-194.14621972-103.56306173 55.50980109-67.108864 123.44716958-103.56306173 194.14621972-103.56306173s138.36025047 36.45419773 194.14621972 103.56306173c-55.50980109 66.83269584-123.44716958 103.56306173-194.14621972 103.56306173z" p-id="46217" fill="#ffffff"></path><path d="M1014.62605958 941.44149597l-190.55603356-190.55603359c63.79484603-79.81259957 102.18222091-180.61397965 102.18222089-290.52890916 0-256.83639309-209.0593006-465.89569369-465.89569369-465.89569369S-5.81530864 203.24399197-5.81530864 460.35655322 203.24399197 926.25224691 460.08038505 926.25224691c109.91492951 0 210.7163096-38.38737488 290.52890917-102.18222089l190.55603359 190.55603356c20.16027601 20.16027601 53.02428761 20.16027601 73.1845636 0 20.43644418-20.16027601 20.43644418-53.02428761 0.27616817-73.18456361z m-554.54567453-118.75231079c-199.94575118 0-362.33263197-162.66304895-362.33263196-362.33263196 0-199.94575118 162.66304895-362.33263197 362.33263196-362.33263197S822.41301703 260.68697021 822.41301703 460.35655322c0.27616816 199.66958302-162.3868808 362.33263197-362.33263198 362.33263196z" p-id="46218" fill="#ffffff"></path><path d="M460.08038505 460.35655322m-51.64344678 0a51.64344678 51.64344678 0 1 0 103.28689357 0 51.64344678 51.64344678 0 1 0-103.28689357 0Z" p-id="46219" fill="#ffffff"></path></svg>