<?xml version="1.0" standalone="no"?><!DOCTYPE svg PUBLIC "-//W3C//DTD SVG 1.1//EN" "http://www.w3.org/Graphics/SVG/1.1/DTD/svg11.dtd"><svg t="1591769195337" class="icon" viewBox="0 0 1024 1024" version="1.1" xmlns="http://www.w3.org/2000/svg" p-id="6271" xmlns:xlink="http://www.w3.org/1999/xlink" width="64" height="64"><defs><style type="text/css"></style></defs><path d="M512 938.666667C276.352 938.666667 85.333333 747.648 85.333333 512S276.352 85.333333 512 85.333333s426.666667 191.018667 426.666667 426.666667-191.018667 426.666667-426.666667 426.666667z m0-85.333334a341.333333 341.333333 0 1 0 0-682.666666 341.333333 341.333333 0 0 0 0 682.666666z m42.666667-384h170.666666v85.333334h-256V256h85.333334v213.333333z m204.501333-353.834666l60.330667-60.330667 149.333333 149.333333-60.330667 60.330667-149.333333-149.333333z m-554.666667-60.330667l60.330667 60.330667-149.333333 149.333333-60.330667-60.330667 149.333333-149.333333z" p-id="6272" fill="#ffffff"></path></svg>