<?xml version="1.0" standalone="no"?><!DOCTYPE svg PUBLIC "-//W3C//DTD SVG 1.1//EN" "http://www.w3.org/Graphics/SVG/1.1/DTD/svg11.dtd"><svg t="1591842754235" class="icon" viewBox="0 0 1024 1024" version="1.1" xmlns="http://www.w3.org/2000/svg" p-id="16695" xmlns:xlink="http://www.w3.org/1999/xlink" width="64" height="64"><defs><style type="text/css"></style></defs><path d="M960 627.2h-76.8V192H256v755.2h294.4v76.8H256a76.8 76.8 0 0 1-76.8-76.8V192a76.8 76.8 0 0 1 76.8-76.8h627.2a76.8 76.8 0 0 1 76.8 76.8v435.2z" fill="#ffffff" p-id="16696"></path><path d="M883.2 115.2h-76.8V76.8H140.8v793.6h38.4v76.8H140.8a76.8 76.8 0 0 1-76.8-76.8V76.8a76.8 76.8 0 0 1 76.8-76.8h665.6a76.8 76.8 0 0 1 76.8 76.8v38.4z" fill="#ffffff" p-id="16697"></path><path d="M729.6 601.6v204.8H524.8V601.6h204.8z m0-76.8H524.8a76.8 76.8 0 0 0-76.8 76.8v204.8a76.8 76.8 0 0 0 76.8 76.8h204.8a76.8 76.8 0 0 0 76.8-76.8V601.6a76.8 76.8 0 0 0-76.8-76.8z" fill="#ffffff" p-id="16698"></path><path d="M883.2 742.4v204.8H678.4V742.4h204.8z m0-76.8H678.4a76.8 76.8 0 0 0-76.8 76.8v204.8a76.8 76.8 0 0 0 76.8 76.8h204.8a76.8 76.8 0 0 0 76.8-76.8V742.4a76.8 76.8 0 0 0-76.8-76.8z" fill="#ffffff" p-id="16699"></path></svg>