<?xml version="1.0" standalone="no"?><!DOCTYPE svg PUBLIC "-//W3C//DTD SVG 1.1//EN" "http://www.w3.org/Graphics/SVG/1.1/DTD/svg11.dtd"><svg t="1591772340726" class="icon" viewBox="0 0 1024 1024" version="1.1" xmlns="http://www.w3.org/2000/svg" p-id="6743" xmlns:xlink="http://www.w3.org/1999/xlink" width="64" height="64"><defs><style type="text/css"></style></defs><path d="M483.21 443.62H357.18c-20.76 0-37.66 16.9-37.66 37.66s16.89 37.66 37.66 37.66H483.2c20.77 0 37.66-16.89 37.66-37.66s-16.89-37.66-37.65-37.66zM861.27 65.56H357.18c-90.26 0-163.68 73.43-163.68 163.68v466.43h-88.36c-20.76 0-37.66 16.89-37.66 37.66v63.01c0 90.26 73.43 163.68 163.68 163.68h441.08c90.25 0 163.68-73.43 163.68-163.68V329.91h88.36c20.77 0 37.66-16.89 37.66-37.66V166.23c0-55.51-45.16-100.67-100.67-100.67zM231.16 884.7c-48.72 0-88.36-39.64-88.36-88.37v-25.35h397.27v25.35c0 31.74 8.9 62.05 25.87 88.37H231.16z m529.44-88.36c0.01 43.06-31.71 80.25-74.05 87.21a36.97 36.97 0 0 0-4.9-1.62c-39.04-10.08-66.29-45.28-66.27-85.6v-63.01c0-20.77-16.89-37.66-37.66-37.66h-308.9V229.24c0-48.72 39.64-88.36 88.36-88.36H760.6v655.46zM886.62 254.6h-50.7v-88.37c0-13.98 11.37-25.35 25.35-25.35 13.98 0 25.35 11.37 25.35 25.35v88.37z m-567.09 37.65c0 20.76 16.89 37.66 37.66 37.66h252.04c20.77 0 37.66-16.89 37.66-37.66 0-20.76-16.89-37.66-37.66-37.66H357.18c-20.76 0.01-37.65 16.9-37.65 37.66z" p-id="6744" fill="#ffffff"></path></svg>