<?xml version="1.0" standalone="no"?><!DOCTYPE svg PUBLIC "-//W3C//DTD SVG 1.1//EN" "http://www.w3.org/Graphics/SVG/1.1/DTD/svg11.dtd"><svg t="1591772387711" class="icon" viewBox="0 0 1024 1024" version="1.1" xmlns="http://www.w3.org/2000/svg" p-id="2636" xmlns:xlink="http://www.w3.org/1999/xlink" width="64" height="64"><defs><style type="text/css"></style></defs><path d="M937.557333 158.848a41.984 41.984 0 0 1-6.186666 34.133333L635.434667 708.266667a42.666667 42.666667 0 0 1-57.941334 17.066666 43.306667 43.306667 0 0 1-14.378666-59.136L809.344 237.653333 235.306667 394.368l213.76 124.757333a41.642667 41.642667 0 0 1 26.197333 28.245334 27.562667 27.562667 0 0 1 2.090667 6.144l36.778666 293.077333a44.8 44.8 0 0 1-37.632 49.749333 42.666667 42.666667 0 0 1-48.725333-36.864l-34.944-278.016-277.333333-161.792a69.077333 69.077333 0 0 1-28.202667-28.629333 10.453333 10.453333 0 0 1 0-1.152 41.173333 41.173333 0 0 1 3.754667-32.085333 40.234667 40.234667 0 0 1 29.866666-19.584l763.733334-208.512a40.192 40.192 0 0 1 33.322666 3.029333 50.730667 50.730667 0 0 1 19.584 26.112z" p-id="2637" fill="#ffffff"></path></svg>