<?xml version="1.0" standalone="no"?><!DOCTYPE svg PUBLIC "-//W3C//DTD SVG 1.1//EN" "http://www.w3.org/Graphics/SVG/1.1/DTD/svg11.dtd"><svg t="1591771706805" class="icon" viewBox="0 0 1024 1024" version="1.1" xmlns="http://www.w3.org/2000/svg" p-id="1922" xmlns:xlink="http://www.w3.org/1999/xlink" width="64" height="64"><defs><style type="text/css"></style></defs><path d="M894.634667 689.493333a41.813333 41.813333 0 0 1-1.237334 6.016 39.296 39.296 0 0 1-4.693333 9.6 45.525333 45.525333 0 0 1-3.072 4.608 43.818667 43.818667 0 0 1-8.32 7.296c-1.109333 0.768-1.792 1.92-2.986667 2.645334l-340.352 214.229333a43.477333 43.477333 0 0 1-8.234666 2.773333 50.773333 50.773333 0 0 1-4.906667 1.621334 65.578667 65.578667 0 0 1-17.664 0 50.773333 50.773333 0 0 1-4.906667-1.621334 43.477333 43.477333 0 0 1-8.234666-2.773333l-340.352-214.229333c-1.194667-0.725333-1.877333-1.877333-2.986667-2.645334a43.818667 43.818667 0 0 1-8.32-7.296 45.525333 45.525333 0 0 1-3.072-4.608 39.296 39.296 0 0 1-4.693333-9.6 41.813333 41.813333 0 0 1-1.237334-6.016A40.277333 40.277333 0 0 1 128 682.666667V341.333333a40.277333 40.277333 0 0 1 1.365333-6.826666 41.813333 41.813333 0 0 1 1.237334-6.016 39.296 39.296 0 0 1 4.693333-9.6 45.525333 45.525333 0 0 1 3.072-4.608 43.818667 43.818667 0 0 1 8.32-7.296c1.109333-0.768 1.792-1.92 2.986667-2.645334l340.352-214.229333a43.477333 43.477333 0 0 1 8.234666-2.773333 50.773333 50.773333 0 0 1 4.906667-1.621334 65.578667 65.578667 0 0 1 17.664 0 50.773333 50.773333 0 0 1 4.906667 1.621334 43.477333 43.477333 0 0 1 8.234666 2.773333l340.352 214.229333c1.194667 0.725333 1.877333 1.877333 2.986667 2.645334a43.818667 43.818667 0 0 1 8.32 7.296 45.525333 45.525333 0 0 1 3.072 4.608 39.296 39.296 0 0 1 4.693333 9.6 41.813333 41.813333 0 0 1 1.237334 6.016A40.277333 40.277333 0 0 1 896 341.333333v341.333334a40.277333 40.277333 0 0 1-1.365333 6.826666zM810.666667 365.610667l-298.666667-187.989334-298.666667 187.989334v292.778666l298.666667 187.989334 298.666667-187.989334V365.610667zM597.333333 682.666667h-170.666666a85.333333 85.333333 0 0 1-85.333334-85.333334v-170.666666a85.333333 85.333333 0 0 1 85.333334-85.333334h170.666666a85.333333 85.333333 0 0 1 85.333334 85.333334v170.666666a85.333333 85.333333 0 0 1-85.333334 85.333334z m0-213.333334a42.666667 42.666667 0 0 0-42.666666-42.666666h-85.333334a42.666667 42.666667 0 0 0-42.666666 42.666666v85.333334a42.666667 42.666667 0 0 0 42.666666 42.666666h85.333334a42.666667 42.666667 0 0 0 42.666666-42.666666v-85.333334z" p-id="1923" fill="#ffffff"></path></svg>